<svg xmlns="http://www.w3.org/2000/svg" xmlns:xlink="http://www.w3.org/1999/xlink" width="1080" zoomAndPan="magnify" viewBox="0 0 810 809.999993" height="1080" preserveAspectRatio="xMidYMid meet" version="1.0"><path fill="#000000" d="M 389.890625 2.085938 C 706.03125 -8.703125 920.546875 342.765625 748.234375 616.617188 C 690.292969 708.703125 596.488281 775.847656 489.605469 798.234375 C 466.933594 802.984375 444.496094 804.464844 421.515625 806.605469 C 274.785156 812.085938 133.046875 735.398438 57.804688 609.359375 C -93.023438 356.703125 78.84375 30.53125 367.441406 3.558594 C 374.914062 2.859375 382.410156 2.679688 389.890625 2.085938 Z M 358.582031 772.410156 C 307.992188 741.964844 278.6875 700.003906 277.277344 641.183594 C 235.796875 622.609375 206.886719 595.753906 178.460938 561.03125 C 149.226562 594.683594 121.183594 498.519531 117.667969 481.484375 C 114.824219 482.625 112.074219 483.429688 109.085938 484.109375 C 94.035156 480.179688 94.421875 470.664062 92.78125 457.070312 C 87.8125 415.863281 93.960938 342.773438 129.203125 314.566406 C 129.777344 302.238281 128.84375 290.070312 130.144531 277.738281 C 135.066406 231.105469 158.253906 188.175781 192.859375 156.777344 C 197.300781 152.746094 202.417969 149.15625 208.726562 149.601562 C 227.289062 150.917969 223.175781 172.285156 222.992188 184.515625 C 222.578125 212.261719 230.867188 237.90625 240.335938 263.6875 C 264.558594 249.679688 284.199219 243.015625 312.347656 242.339844 C 353.042969 241.363281 348.300781 256.152344 334.902344 285.121094 C 323.679688 309.382812 317.945312 319.042969 295.167969 334.089844 C 302.246094 338.53125 309.761719 342.277344 316.695312 346.945312 C 351.546875 370.417969 389.617188 418.714844 362.09375 461.25 C 346.636719 485.140625 325.839844 499.414062 349.152344 534.261719 C 373.769531 481.105469 407.332031 455.351562 461.257812 437.785156 C 438.550781 404.609375 431.808594 371.527344 459.3125 338.5 C 476.136719 318.300781 480.792969 302.996094 463.648438 277.839844 C 437.925781 240.085938 371.90625 206.746094 324.980469 219.789062 C 313.988281 222.847656 302.550781 229.972656 294.234375 217.335938 C 281.699219 198.285156 322.195312 175.464844 334.878906 167.640625 C 392.355469 132.203125 447.347656 136.757812 506.882812 159.710938 C 494.367188 74.472656 417.261719 28.453125 334.671875 40.835938 C 244.691406 54.328125 159.996094 113.660156 106.675781 185.921875 C -60.167969 412.035156 77.238281 737.4375 358.582031 772.410156 Z M 364.945312 186.867188 C 374.257812 188.523438 383.324219 190.136719 392.371094 192.957031 C 395.273438 190.1875 395.480469 188.078125 393.257812 184.726562 L 393.332031 183.949219 C 393.554688 181.296875 393.355469 179.429688 392.371094 176.902344 C 382.765625 179.367188 373.746094 182.1875 364.945312 186.867188 Z M 364.945312 186.867188 " fill-opacity="1" fill-rule="nonzero"/><path fill="#5d6466" d="M 301.4375 274.558594 C 303.332031 274.328125 304.613281 274.035156 303.742188 276.257812 C 296.324219 295.171875 287.773438 302.332031 269.414062 309.722656 L 266.855469 305.800781 C 264.03125 301.253906 261.273438 296.714844 258.730469 292.003906 C 270.890625 281.328125 285.824219 277.085938 301.4375 274.558594 Z M 301.4375 274.558594 " fill-opacity="1" fill-rule="nonzero"/><path fill="#87c9d3" d="M 538.964844 502.386719 C 546.503906 501.34375 551.371094 512.707031 554.777344 517.953125 C 545.929688 527.941406 532.175781 532.308594 519.402344 534.261719 C 513.847656 534.449219 508.285156 534.390625 502.734375 534.261719 C 506.78125 516.109375 521.332031 506.09375 538.964844 502.386719 Z M 538.964844 502.386719 " fill-opacity="1" fill-rule="nonzero"/><path fill="#e6e5e5" d="M 392.371094 176.902344 C 473.003906 156.898438 559.347656 214.65625 607.566406 275.46875 C 617.636719 288.167969 626.476562 301.65625 636.199219 314.566406 C 640.730469 308.273438 644.753906 301.59375 648.574219 294.851562 C 663.371094 320.296875 667.5 354.550781 656.710938 382.167969 C 666.546875 379.609375 675.96875 376.332031 685.527344 372.898438 C 693.425781 423.28125 676.171875 455.257812 648.574219 493.75 C 649.8125 536.109375 645.332031 566.535156 616.796875 601.179688 C 612.386719 538.890625 581.660156 482.820312 529.625 448.378906 C 510.171875 435.503906 473.886719 416.90625 471.882812 390.917969 C 469.613281 361.457031 501.75 351.234375 503.8125 311.882812 C 507.019531 250.867188 444.238281 208.480469 392.371094 192.957031 C 395.273438 190.1875 395.480469 188.078125 393.257812 184.726562 L 393.332031 183.949219 C 393.554688 181.296875 393.355469 179.429688 392.371094 176.902344 Z M 392.371094 176.902344 " fill-opacity="1" fill-rule="nonzero"/><path fill="#87c9d3" d="M 586.613281 358.097656 C 602.332031 379.5625 579.625 412.515625 553.464844 408.585938 C 545.617188 407.40625 541.054688 402.121094 534.175781 399.386719 C 537.226562 388.714844 533.207031 382.285156 549.070312 377.910156 C 569.734375 389.449219 583.832031 380.523438 586.613281 358.097656 Z M 586.613281 358.097656 " fill-opacity="1" fill-rule="nonzero"/><path fill="#000000" d="M 534.175781 399.386719 C 490.605469 347.992188 573.246094 307.695312 586.613281 358.097656 C 583.832031 380.523438 569.734375 389.449219 549.070312 377.910156 C 533.207031 382.285156 537.226562 388.714844 534.175781 399.386719 Z M 534.175781 399.386719 " fill-opacity="1" fill-rule="nonzero"/><path fill="#9b9a9a" d="M 189.992188 207.652344 C 191.183594 209.46875 195.109375 230.699219 196.375 235.058594 C 209.75 281.257812 232.757812 328.9375 272.773438 357.789062 C 293.816406 372.960938 311.882812 378.335938 327.734375 401.433594 C 348.449219 431.621094 337.496094 437.429688 321.789062 458.804688 C 300.210938 488.171875 303.605469 525.796875 324.238281 554.957031 C 352.894531 595.457031 395.714844 611.34375 442.566406 619.230469 C 423.257812 629.027344 401.136719 634.566406 379.433594 633.519531 C 306.59375 637.039062 224.269531 585.269531 191.097656 520.597656 C 183.835938 506.441406 177.542969 483.820312 161.199219 512.898438 C 151.203125 494.304688 143.851562 471.023438 148.027344 449.667969 C 149.257812 443.382812 156.144531 430.515625 145.320312 428.347656 C 137.773438 426.839844 128.59375 434.011719 122.46875 437.785156 C 122.292969 400.179688 127.183594 372.933594 148.078125 340.855469 C 152.441406 334.160156 158.101562 328.375 162.289062 321.574219 L 162.695312 320.902344 C 164.039062 274.378906 161.25 251.488281 189.992188 207.652344 Z M 189.992188 207.652344 " fill-opacity="1" fill-rule="nonzero"/><path fill="#000000" d="M 249.929688 399.386719 L 253.253906 398.261719 C 270.871094 392.3125 274.773438 403.296875 282.851562 411.230469 C 286.265625 414.835938 288.152344 422.335938 289.175781 427.15625 C 299.675781 476.601562 228.183594 488.648438 219.953125 441.984375 C 216.5 422.390625 230.070312 402.582031 249.929688 399.386719 Z M 249.929688 399.386719 " fill-opacity="1" fill-rule="nonzero"/><path fill="#87c9d3" d="M 249.929688 399.386719 L 253.253906 398.261719 C 270.871094 392.3125 274.773438 403.296875 282.851562 411.230469 C 283.140625 425.109375 272.078125 437.53125 257.375 435.777344 C 239.015625 433.585938 233.527344 411.390625 249.929688 399.386719 Z M 249.929688 399.386719 " fill-opacity="1" fill-rule="nonzero"/><path fill="#284145" d="M 468.390625 38.761719 C 670.328125 77.609375 810.105469 268.917969 770.363281 473.746094 C 741.871094 620.566406 622.398438 741.582031 474.878906 768.175781 C 461.960938 770.503906 451.742188 771.636719 438.796875 769.089844 C 373.976562 756.328125 322.117188 721.554688 309.1875 654.839844 C 366.730469 670.6875 411.375 674.0625 466.667969 642.671875 C 478.175781 636.132812 503.03125 620.171875 506.628906 607.5625 C 515.066406 577.972656 471.796875 587.300781 459.289062 587.125 C 425.40625 586.640625 363.136719 568.320312 349.152344 534.261719 C 373.769531 481.105469 407.332031 455.351562 461.257812 437.785156 C 468.148438 442.246094 473.851562 448.988281 480.191406 454.273438 C 489.914062 462.382812 500.394531 469.253906 510.960938 476.195312 C 489.175781 490.632812 478.46875 503.464844 468.386719 527.457031 C 456.699219 555.265625 458.171875 562.335938 488.835938 566.160156 C 518.542969 569.863281 545.421875 564.195312 571.363281 550.164062 C 579.882812 571.910156 584.964844 593.289062 584.980469 616.8125 C 584.988281 628.546875 579.199219 647.410156 593.453125 653.304688 C 603.4375 657.4375 613.28125 648.242188 620.402344 642.460938 C 662.613281 608.195312 683.003906 556.007812 682.496094 502.386719 C 684.953125 497.410156 688.417969 493.054688 691.480469 488.449219 C 715.425781 452.441406 722.585938 410.226562 718.3125 367.476562 C 716.105469 345.425781 717.828125 329.746094 693.050781 328.582031 C 689.855469 304.878906 675.59375 254.769531 652.730469 241.347656 C 638.765625 240.957031 637.835938 247.097656 631.894531 257.777344 C 608.167969 227.828125 570.859375 190.367188 537.035156 174.875 C 536.945312 113.242188 512.945312 76.597656 468.390625 38.761719 Z M 468.390625 38.761719 " fill-opacity="1" fill-rule="nonzero"/></svg>